<?xml version="1.0" encoding="iso-8859-1"?>
<!-- Generator: Adobe Illustrator 16.2.0, SVG Export Plug-In . SVG Version: 6.00 Build 0)  -->
<svg version="1.2" baseProfile="tiny" id="&#x30EC;&#x30A4;&#x30E4;&#x30FC;_1"
	 xmlns="http://www.w3.org/2000/svg" xmlns:xlink="http://www.w3.org/1999/xlink" x="0px" y="0px" width="68.713px"
	 height="82.507px" viewBox="0 0 68.713 82.507" xml:space="preserve">
<polygon id="path6263-9-9-5-8-3-6" fill="#F7E081" points="0,82.507 7.046,8.416 33.959,0 60.412,7.061 68.713,82.5 "/>
<path id="path4" sodipodi:nodetypes="ccccccccccccccccsccccsccccsccscccccscccccccccsccc" fill="#040000" d="M32.208,29.912
	c-0.043,3.983-0.117,5.334-0.191,7.661c-1.438,0.253-3.224,0.788-4.604,0.862c-0.437-4.493,1.674-8.563-3.624-8.983
	c0,0-2.388-0.437-3.209,0.071c0.966,1.549,1.406,1.554,1.86,3.076c-0.127,2.567-0.137,4.524-0.041,7.109
	c-4.086,0.931-6.662,2.276-10.654,1.972c-2.252-0.178-2.465,0.619-0.808,2.699c0.978,1.239,2.458,2.609,3.86,2.609
	c2.226-0.303,7.675-3.197,16.878-4.651c0.08,3.909,0.282,8.845,0.271,11.244c-2.572-1.729-3.416-2.687-5.908-4.632
	c0,0,0.502-2.356,0.264-4.028c-5.961,3.762-7.725,7.302-7.245,10.237c0.17,1.019,1.009,1.75,1.901,2.192
	c1.718,0.36,2.828,0.669,3.669-0.513c0.825-1.158,0.99-4.096,1.232-5.36c2.075,3.219,4.681,7.158,7.3,8.217l-1.232,1.106
	c-2.635,2.391-3.441,3.054-4.376,3.585c-2,1.824-10.902,7.563-10.902,7.563c0.643,0.756,6.755-1.773,8.412-2.305
	c5.715-2.88,9.928-4.866,14.429-9.065c1.063-1.018,2.422-2.169,3.017-2.566c1.604-1.868,3.297-3.06,4.685-4.777
	c0.708,0.741,1.42,0.869,2.466,0.832c0.927-0.034,1.861-0.813,2.58-1.455c0.632-0.725,0.997-2.569,0.437-3.449
	c-1.317-1.594-3.378-3.525-5.398-4.378c-1.734-0.73-5.154-1.198-7.647-1.001c1.135,1.739,3.592,3.136,4.318,5.127
	c-1.757,1.913-4.005,4.724-6.186,6c-0.198-5.947,0.135-8.229-0.602-13.55c4.26-0.738,8.617-1.135,12.698-1.319
	c4.674-0.222,5.566-0.398,5.948-1.063c0.383-0.664,0.458-2.765-0.392-3.517c-0.978-0.841-1.124-1.257-6.53-0.685l-11.686,1.629
	c-0.08-2.419-0.014-3.401-0.028-4.952c1.27-0.366,4.865-0.986,5.545-1.118c1.87-0.311,3.304-0.873,4.015-2.215
	c0.17-1.791-2.34-3.461-3.31-2.888c-1.622,0.347-4.59,1.012-6.13,1.293c-0.054-2.107-0.26-4.134-1.56-5.114
	c-1.322-1.202-3.388-1.681-4.535-1.681c-0.595,0-0.595,0.132,0.042,1.416C32.615,23.815,32.247,27.494,32.208,29.912L32.208,29.912z
	"/>
</svg>
