<?xml version="1.0" encoding="iso-8859-1"?>
<!-- Generator: Adobe Illustrator 16.2.0, SVG Export Plug-In . SVG Version: 6.00 Build 0)  -->
<svg version="1.2" baseProfile="tiny" id="&#x30EC;&#x30A4;&#x30E4;&#x30FC;_1"
	 xmlns="http://www.w3.org/2000/svg" xmlns:xlink="http://www.w3.org/1999/xlink" x="0px" y="0px" width="82.398px"
	 height="88.724px" viewBox="0 0 82.398 88.724" xml:space="preserve">
<path id="path6263-9-9-5" fill="#F7E081" d="M0,88.724c0,0,1.795-18.985,4.117-40.398C6.441,26.912,8.342,9.034,8.342,9.034
	L40.676,0l31.782,7.579l9.94,81.125L0,88.724z"/>
<g id="g3563" transform="matrix(0.81,0,0,0.81,60.015459,24.557821)">
	<path id="path38" sodipodi:nodetypes="cccscccccccccccccccccccccccccccccccccc" fill="#040000" d="M-18.37,2.958
		c-0.658-0.874-2.13-1.653-3.904-1.377c0.37,17.128-0.852,38.704-0.834,52.927c0.246,6.021,0.533,6.448,5.204,6.41
		c1.57-0.011,3.557-1.87,10.877-10.317c1.255-1.419,1.749-2.187,2.497-2.863c1.496,1.325,3.086,2.731,4.483,3.844
		c3.4,2.644,4.788,3.299,8.606,3.17c2.699-0.063,4.231-0.869,4.538-3.139c-0.165-2.267-2.457-7.112-6.697-8.031
		c-5.288-1.889-8.118-3.18-13.023-5.606c3.428-1.002,13.897-3.552,12.541-6.532c-0.47-0.967-2.065-4.374-6.087-4.156
		c0.486,0.579-0.746,2.103-1.657,2.9c-3.372,2.515-6.78,4.884-8.669,6.132l-4.819-1.71l0.21-7.364l12.324-1.717
		c0.655,1.115,4.039,0.692,4.346-0.387C2.288,21.986,4.339,5.525,2.771,3.204c-0.627-0.967-2.959-3.689-5.33-3.965
		c-5.301,1.572-15.812,3.719-15.812,3.719H-18.37z M-15.683,11.96l-0.227-4.334c0,0,7.74-1.573,12.645-2.296l0.025,4.862
		L-15.683,11.96z M-3.203,19.884l-12.276,1.561l-0.008-4.401l12.259-1.672L-3.203,19.884z M-6.745,45.526
		c-3.118,1.93-5.65,3.994-8.796,5.657l-0.025-12.067C-15.567,39.115-10.022,43.011-6.745,45.526L-6.745,45.526z"/>
	<path id="path40" sodipodi:nodetypes="cscccccccccscsccccccsscccssccsccccccccccc" fill="#040000" d="M-41.564-2.506
		c1.671,2.85-1.331,14.568-6.433,24.418c-4.585,8.851-9.477,15.258-13.408,19.523c7.362-1.449,13.167-9.271,17.564-13.825
		c1.558,0.622,4.58-0.411,5.445-0.388c-0.125,1.828-0.051,2.371-0.042,4.481c-0.688,0.128-2.083,0.556-2.913,0.737
		c-0.807,0.224-4.134,1.053-4.991,1.518c0.618,1.962,3.148,4.052,7.926,3.007l0.09,12.73l-1.188,0.464
		c-2.339-2.595-3.165-6.949-3.243-8.747c0,0,0.029-0.615,0.189-1.177c-3.118-0.832-5.487,0.386-5.523,3.095
		c-0.025,1.971,1.719,4.749,5.008,8.342c-2.256,0.991-7.33,2.277-9.6,3.279c-2.652,1.051-2.21,6.583,0.968,7.271
		c3.09,0.816,6.256-2.24,8.974-3.56c4.273-1.847,9.937-5.054,14.533-6.443c3.227-0.975,3.663-1.499,3.303-3.533
		c-2.302-2.93-4.649-1.841-7.186-0.992c-0.219,0.075,4.583-4.591,5.623-6.916c1.036-2.311-0.833-4.552-4.423-3.206
		c0.606,1.208,0.129,1.138-2.165,7.738l-0.212-9.522c1.642-0.551,6.175-1.349,6.662-2.569c0.432-1.083-0.795-3.314-1.566-3.907
		c-0.547-0.42-4.561,0.95-5.189,0.932c-0.163-1.359-0.106-3.02-0.617-4.068c1.097-0.303,3.646-0.816,4.597-1.213
		c0.678-0.282,3.498-1.653,3.223-3.03c-0.121-1.09-1.872-2.211-2.859-2.458c-1.348,0.017-4.722,0.79-7.715,1.81
		c-1.522,0.369-1.91,0.582-3.887,1.054c1.958-3.67,3.833-5.659,5.381-9.5c2.323,2.146,5.498,4.587,8.003,6.525
		c1.415,1.306,6.068-0.475,3.889-5.742c-2.386-3.944-5.845-4.062-9.256-5.463c0.767-2.892,1.349-4.694-0.013-6.362
		C-34.582-0.334-38.963-2.198-41.564-2.506L-41.564-2.506z"/>
</g>
</svg>
