<?xml version="1.0" encoding="iso-8859-1"?>
<!-- Generator: Adobe Illustrator 16.2.0, SVG Export Plug-In . SVG Version: 6.00 Build 0)  -->
<svg version="1.2" baseProfile="tiny" id="&#x30EC;&#x30A4;&#x30E4;&#x30FC;_1"
	 xmlns="http://www.w3.org/2000/svg" xmlns:xlink="http://www.w3.org/1999/xlink" x="0px" y="0px" width="90.238px"
	 height="96.994px" viewBox="0 0 90.238 96.994" xml:space="preserve">
<polygon id="path7343-8" fill="#F7E081" points="9.646,9.587 44.67,0 79.686,8.209 90.238,96.915 0,96.994 "/>
<g id="g323" transform="matrix(0.93767625,0,0,0.93767625,-228.49046,9.5115753)">
	<path id="path120-5" fill="#040000" d="M293.759,12.424c-0.938,0.407-3.049,0.952-4.692,1.291c-1.583,0.34-5.278,1.088-8.21,1.7
		c-2.873,0.544-6.392,1.224-7.741,1.496c-3.343,0.544-3.343,2.108,0.176,5.983c3.05,3.467,4.34,3.739,7.859,1.631
		c1.29-0.815,3.225-1.496,4.281-1.563l1.877-0.068l0.176,7.342c0.118,5.506,0,7.342-0.586,7.547
		c-0.411,0.135-2.17,0.748-3.929,1.359c-1.701,0.612-4.281,1.088-5.689,1.088c-1.349,0-2.698,0.272-2.874,0.679
		c-0.41,0.817,2.053,5.167,3.753,6.527c1.466,1.224,5.747,1.428,6.686,0.34c0.352-0.407,1.114-0.748,1.701-0.748
		c0.88,0,0.997,0.817,0.997,8.431c0,6.458-0.235,8.634-0.821,9.245c-0.469,0.476-3.812,1.088-7.448,1.428
		c-3.636,0.408-9.677,1.292-13.43,2.04c-4.164,0.883-7.624,1.224-8.973,0.952c-1.935-0.476-2.111-0.341-2.111,1.02
		c0,1.7,3.46,5.847,5.689,6.866c2.17,0.952,5.044,0.748,6.569-0.476c1.877-1.564,9.032-3.671,12.198-3.671
		c1.466,0,3.108-0.341,3.695-0.68c0.645-0.408,5.454-0.952,10.732-1.36c8.094-0.475,10.088-0.475,12.491,0.408
		c1.643,0.612,6.276,1.224,10.616,1.428c6.685,0.34,7.977,0.204,9.266-0.748c2.345-1.767,1.701-3.739-2.111-6.662
		c-2.932-2.312-3.812-2.584-9.735-3.332c-4.986-0.611-7.684-0.611-11.906,0c-2.991,0.476-5.689,0.544-5.982,0.204
		c-0.645-0.748-0.703-16.452-0.058-17.132c0.88-0.884,5.278-2.039,7.625-2.039c2.757,0,3.752-1.088,3.109-3.195
		c-0.587-1.632-5.455-3.603-8.973-3.603c-1.173,0-2.287-0.341-2.464-0.68c-0.233-0.408-0.585-2.787-0.762-5.234
		c-0.351-4.079-0.585-4.555-2.169-5.575c-3.695-2.312-3.225-2.515,8.914-4.691c3.637-0.612,6.862-1.496,7.273-1.972
		c1.407-1.632,0.118-4.079-2.815-5.235c-2.991-1.155-9.442-1.359-12.198-0.34H293.759z"/>
	<path id="path142" fill="#040000" d="M307.447,51.327l-1.716,1.577l2.537,1.742c1.418,0.912,2.911,1.742,3.285,1.742
		c0.373,0,2.462,1.328,4.551,2.987c2.762,2.075,4.552,2.905,6.045,2.656c1.94-0.249,2.164-0.498,2.089-3.236
		c-0.149-5.975-3.731-8.796-11.567-8.962C310.283,49.75,308.641,50.248,307.447,51.327L307.447,51.327z"/>
</g>
</svg>
