<?xml version="1.0" encoding="iso-8859-1"?>
<!-- Generator: Adobe Illustrator 16.2.0, SVG Export Plug-In . SVG Version: 6.00 Build 0)  -->
<svg version="1.2" baseProfile="tiny" id="&#x30EC;&#x30A4;&#x30E4;&#x30FC;_1"
	 xmlns="http://www.w3.org/2000/svg" xmlns:xlink="http://www.w3.org/1999/xlink" x="0px" y="0px" width="86.436px"
	 height="93.109px" viewBox="0 0 86.436 93.109" xml:space="preserve">
<polygon id="path7343-5" fill="#F7E081" points="9.239,9.203 42.788,0 76.328,7.881 86.436,93.033 0,93.109 "/>
<g id="g3464" transform="matrix(0.893025,0,0,0.893025,-150.17849,13.519736)">
	<path id="path94" sodipodi:nodetypes="ccccccccscccsccccccccccccccccc" fill="#040000" d="M217.939,5.782
		c-4.709,2.821-19.618,5.534-22.561,5.894c-2.109,0.3-2.453,0.54-2.6,1.8c-0.147,0.961,1.392,3.876,2.471,5.257
		c1.962,2.521,3.777,2.64,6.033,0.539c1.811-1.55,14.486-7.183,18.276-8.314c-0.289,7.512-0.03,15.77,3.004,19.848
		c4.145,6.039,7.273,9.024,12.085,9.809c0.371,0.51,1.204,1.729,0.627,2.482c-1.644,2.141-7.161,5.794-10.57,8.854
		c2.156,0.562,7.509-1.515,11.103-2.061c1.17-0.367,3.539-1.355,4.126-2.134c1.54-1.478,1.386-3.23,0.784-4.622
		c-0.527-1.221-2.57-1.657-3.626-2.249c0.831,0.287,2.802-0.042,3.574-0.537c2.305-1.5,2.502-2.521,0.932-5.342
		c-1.201-2.287-2.371-9.516-3.307-12.283c-0.914,3.779-1.146,9.125-2.316,9.977c-1.054,0.675-4.177-0.623-5.4-1.477
		c-3.029-2.593-5.739-4.864-6.296-8.953c1.702,0.093,3.432,1.282,5.003,2.375c1.29,1.407,4.836,1.454,5.221,0.793
		c0.496-0.947,0.192-3.68-0.982-5.272c-1.204-1.172-5.162,0.081-9.214-0.738c6.633-3.822,14.604-9.833,6.291-10.471
		c-1.814-0.12-2.06,0.06-2.208,1.26c-0.196,1.681-3.35,5.565-4.429,5.565c-0.422-1.939,0.234-5.1,0.763-6.398
		c1.227-2.941,0.395-2.942-0.93-4.022C220.575,3.756,219.848,4.663,217.939,5.782L217.939,5.782z"/>
	<path id="path98" sodipodi:nodetypes="sccccccscccccsccccccccccscccccccccccsccccccccssccccccccccc" fill="#040000" d="
		M207.165,18.865c0,0.54,0.447,1.381,1.007,1.801c0.782,0.6,0.95,1.98,1.118,8.763l0.128,8.699l-2.976,1.421
		c0,0-0.028-2.974-0.12-4.235c-0.233-2.443-1.103-6.897-2.369-8.552c-1.075-1.485-3.868-2.619-4.994-0.021l-1.11,2.567
		c-0.939,1.246-2.701,4.303-3.783,7.157c-0.691-1.963-1.38-5.741-3.306-6.318c-1.901-0.54-2.236,0.119-3.019,6.122
		c-0.185,2.431,0.527,4.862,2.205,7.143c0.615,0.84,1.832,1.71,1.664,2.13c-0.168,0.42-4.227,1.086-6.071,1.685
		c-1.901,0.6-3.653-0.033-5.172,0.943c-0.653,2.267,1.284,5.986,3.409,7.066c1.543,0.344,2.575,1.56,4.643,0.12
		c2.276-1.589,7.541-4.859,9.704-6.028c-0.874,6.718-8.134,11.605-12.121,15.718c-2.012,2.101-6.147,4.081-5.587,4.801
		c4.131,0.315,9.019-2.727,11.935-4.266c4.09-2.308,9.977-9.209,9.977-9.209c2.787,5.345,3.716,8.737,6.301,15.907
		c2.348,3.061,4.463,3.841,5.749,3.841c0.895,0,2.359-0.261,2.925-1.337c0.556-1.353,0.612-5.204,0.444-16.548
		c-0.112-9.195-0.616-15.806-0.541-17.341c0,0,3.894-1.883,4.675-2.123c-0.541,2.974-0.648,6.746-0.808,9.589
		c-0.121,2.786,0.373,7.821,1.113,9.778c2.003,4.475,7.562,9.166,11.806,10.797c4.466,1.478,7.915,1.948,7.915,1.948
		c2.862,0.449,8.394,0.469,9.77-0.665c1.861-1.487,1.205-3.012,0.282-5.718c0,0-4.651-11.303-5.753-16.109
		c0,0-0.624,7.614-1.146,11.33c-0.493,3.506-1.499,2.88-5.679,2.911c-6.074-0.554-10.914-4.989-12.423-8.229
		c-0.56-1.261-2.292-5.998-1.297-11.271c0.68-4.541,0.479-6.912-0.8-7.513c-0.839-0.36-2.848-2.053-4.438-1.408l-3.956,1.215
		l-0.342-7.498c-0.168-3.721-0.83-6.133-1.054-6.733c-0.67-1.92-7.905-4.13-7.905-2.329L207.165,18.865z M198.652,42.926
		c-1.059,0.839-4.213,1.73-4.213,1.73c0.889-4.855,2.614-8.093,4.039-12.533C198.803,35.788,199.046,38.859,198.652,42.926
		L198.652,42.926z M209.514,62.316c-2.207-2.453-3.135-5.229-5.607-7.812c1.121-2.748,1.627-6.336,2.363-8.737l3.41-1.908
		C209.679,43.859,210.055,56.634,209.514,62.316L209.514,62.316z"/>
	<path id="path110" sodipodi:nodetypes="ccscccc" fill="#040000" d="M223.443,52.919c2.257,0.16,6.254,1.272,8.263,2.633
		c1.3,0.847,2.334,1.948,3.708,3.013c1.661,1.285,2.308,1.553,3.704,2.151c3.569,0.568,3.442-2.392,2.972-3.964
		c-0.639-2.306-0.924-2.91-2.955-4.185C233.791,49.782,227.096,51.184,223.443,52.919L223.443,52.919z"/>
</g>
</svg>
