<?xml version="1.0" encoding="iso-8859-1"?>
<!-- Generator: Adobe Illustrator 16.2.0, SVG Export Plug-In . SVG Version: 6.00 Build 0)  -->
<svg version="1.2" baseProfile="tiny" id="&#x30EC;&#x30A4;&#x30E4;&#x30FC;_1"
	 xmlns="http://www.w3.org/2000/svg" xmlns:xlink="http://www.w3.org/1999/xlink" x="0px" y="0px" width="86.437px"
	 height="93.109px" viewBox="0 0 86.437 93.109" xml:space="preserve">
<polygon id="path7343-5-4" fill="#F7E081" points="9.239,9.203 42.788,0 76.328,7.881 86.437,93.033 0,93.109 "/>
<path id="path70" sodipodi:nodetypes="cccccccccccccsccccccscccscccccccccsccccccccccccsccccscccccccsc" fill="#040000" d="
	M20.745,41.554C28.13,37.782,32.786,35.8,40.76,27.859l9.837-1.008L40.538,39.285l-10.649,1.96
	c-1.856,0.416-2.238,1.216-3.194,4.254c-3.206,10.341-5.078,21.872-5.19,27.522c-0.008,2.838,0.531,3.343,1.669,4.845
	c1.575,1.279,5.052,0.808,5.671-0.151c1.101-1.51,1.417-2.646,1.507-6.051c0.112-3.252,0.224-9.522,0.224-9.522
	c2.568,0.643,3.231,0.551,5.498,0.461l4.927-0.273v3.619c0,2.932,1.383,4.864,2.326,5.171c2.344,0.577-2.669-0.883-4.954-1.476
	c4.804,2.51,14.869,10.075,14.869,10.075c1.795,1.195,3.259,2.831,5.045,3.219c1.943,0.301,7.536,1.098,8.24-2.92l-0.031-35.902
	c-0.138-2.233-1.332-2.646-2.924-4.22c-1.85-1.827-3.936-2.444-4.48-2.585c-4.105-0.202-15.599,1.485-15.599,1.485l14.077-9.178
	c2.316-2.196,1.503-4.663,0.646-5.47c-1.584-1.487-7.951-3.006-9.486-2.86l-5.617,1.771c0,0,1.806-1.644,0.921-2.926
	c-1.643-2.115-4.115-2.984-6.626-3.295c0.413,0.983-0.295,2.929-0.926,4.403C31.698,31.346,28.894,33.971,20.745,41.554
	L20.745,41.554z M56.719,42.26c1.472,0.86,1.021,4.327,1.057,5.273c-3.268,0.414-8.146,0.846-10.869,1.154
	c-0.51-1.561-0.991-2.211-1.584-2.981c-1.456-1.535-3.201-2.741-3.818-2.112c-0.291,0.452-0.423,1.248-0.354,2.971
	c0.037,0.927,0.132,1.887,0.066,2.889c-1.689,0.208-9.619,1.524-10.411,1.686c-0.142-2.828,0.213-4.169,0.073-6.324L56.719,42.26z
	 M47.533,57.235c-0.074-1.631-0.194-3.503-0.219-4.626c2.964-0.345,7.438-0.815,10.604-1.094c0.035,2.155-0.035,2.898,0.037,4.802
	C54.408,56.605,50.93,56.982,47.533,57.235L47.533,57.235z M41.09,58.07c-3.292,0.65-7.08,0.998-10.561,1.677
	c0.055-2.619,0.088-4.037,0.263-6.554c2.502,0.289,7.756,0.274,10.399,0.202C41.205,55.002,41.077,56.476,41.09,58.07L41.09,58.07z
	 M58.063,67.396c-0.034,2.018-0.018,3.993-0.3,8.312c0,0-6.745-2.484-12.483-4.172c-1.756-0.432-0.36-0.397,0.765-1.783
	c0.788-1.014,1.397-1.611,1.565-3.637c0.113-1.705,0.142-3.486,0.111-4.653c3.063-0.247,6.449-0.812,10.186-0.652
	C57.85,61.403,58.063,61.586,58.063,67.396L58.063,67.396z"/>
</svg>
