<?xml version="1.0" encoding="iso-8859-1"?>
<!-- Generator: Adobe Illustrator 16.2.0, SVG Export Plug-In . SVG Version: 6.00 Build 0)  -->
<svg version="1.2" baseProfile="tiny" id="&#x30EC;&#x30A4;&#x30E4;&#x30FC;_1"
	 xmlns="http://www.w3.org/2000/svg" xmlns:xlink="http://www.w3.org/1999/xlink" x="0px" y="0px" width="76.517px"
	 height="85.139px" viewBox="0 0 76.517 85.139" xml:space="preserve">
<polygon id="path6263-9-9-5-8" fill="#F7E081" points="0,85.139 7.831,8.675 37.801,0 67.26,7.278 76.517,85.13 0,85.139 "/>
<g id="g3599" transform="matrix(0.9,0,0,0.9,114.75043,12.70051)">
	<path id="path26" sodipodi:nodetypes="ccccccccscccccccsscccccccccccccscsc" fill="#040000" d="M-104.101,9.88
		c-1.121,1.812,1.541,10.128,1.393,16.438c-1.172,0.158-4.895,0.948-6.217,0.864c-3.363-0.156-2.76,3.034,0.471,4.737
		c1.777,0.857,5.742-0.165,5.742-0.165c-5.145,8.452-11.087,12.729-9.868,19.494c0.174,0.579,0.821,1.674,2.068,1.873
		c0.72,0.865,3.539,3.865,4.563,5.498c2.88,4.872,3.573,6.969,6.832,6.972c1.757,0.001,3.593-2.237,3.079-5.53
		c-0.168-0.803-0.304-3.183-0.357-7.847l-0.079-10.879c1.549-2.301,3.322-4.718,4.74-7.094c-1.867,1.48-4.905,3.739-4.905,3.739
		l0.073-7.13c1.899-0.36,3.105-0.317,4.837-0.428c2.204-0.157,3.101-1.239,2.805-2.73c-0.458-2.299-1.591-3.364-3.74-3.025
		l-4.089,0.642c0.123-6.096,0.89-7.447,1.16-10.004c0.248-2.489-1.42-3.507-2.633-4.264C-99.642,10.389-103.219,8.747-104.101,9.88
		L-104.101,9.88z M-102.7,42.228c0,0-0.425,0.296-1.387,1.056c-2.304,1.788-2.554,2.215-1.663-0.093c0,0,1.912-4.337,3.112-6.547
		C-102.744,38.943-102.673,40.569-102.7,42.228z M-102.502,52.801c-0.36,4.967-0.562,3.886-2.582,2.559l-3.966-2.332
		c1.873,0.311,4.633-3.671,6.612-5.576C-102.489,49.198-102.464,51.283-102.502,52.801L-102.502,52.801z"/>
	<path id="path22" sodipodi:nodetypes="cccccccccccccccccccccscsccccscccccccccccsccc" fill="#040000" d="M-77.406,9.494
		c-0.487,0.586-0.632,1.067-0.371,1.71c0.201,0.607,0.718,1.458,0.638,7.967c-1.903,0.396-3.471,0.399-5.204,0.679
		c-3.021,0.386-3.167,2.039-1.385,4.354c0.941,1.212,1.585,1.867,2.872,1.757c1.549-0.167,2.369-0.27,3.921-0.655l-0.064,7.556
		c-4.481,0.741-7.59,1.206-11.759,1.582c-2.576,0.22-2.336,1.918,0.537,4.069c2.053,1.944,2.603,2.166,5.101,1.326
		c2.706-0.78,3.798-1.08,6.184-1.402l0.035,6.437c-1.462,0.38-3.663,0.42-5.128,0.656c-2.13,0.386-2.558,1.024-2.112,2.513
		c0.396,1.488,1.456,1.987,3.24,2.675c1.039,0.183,1.876,0.22,3.963-0.075l0.042,7.345c-1.943,0.295-3.887,0.675-5.83,0.637
		c-7.663,0.197-9.82,0.463-6.871,4.824c1.679,2.109,3.837,1.912,6.379,0.978c2.676-0.806,8.385-1.063,13.808-0.833
		c2.667,0.112,5.297,0.706,7.4,0.701c6.189,0,5.942-2,5.942-4.15c0-0.943-0.822-2.64-2.504-3.09
		c-2.524-0.538-5.981-0.278-11.854,0.145l-0.02-7.32c1.272-0.282,6.015-0.505,6.758-1.212c1.233-0.987,0.503-3.851-0.396-4.583
		c-1.42-1.157-4.999-0.666-6.418-0.396l-0.124-6.057c0,0,3.646-0.2,5.952-0.092c4.309,0,6.023-0.611,5.927-2.486
		c-0.265-2.103-1.169-4.018-4.647-3.721l-7.28,0.729l-0.085-7.626c2.437-0.346,6.556,0.153,7.625-1.369
		c0.946-1.287-1.375-4.479-2.212-4.907c-0.884-0.45-3.594-0.139-5.86,0.229l-0.039-2.83c0.02-1.605,0.814-2.429,0.254-3.697
		c-0.374-0.847-1.502-1.519-2.411-1.853C-74.594,9.53-76.985,9.11-77.406,9.494L-77.406,9.494z"/>
</g>
</svg>
