<?xml version="1.0" encoding="iso-8859-1"?>
<!-- Generator: Adobe Illustrator 16.2.0, SVG Export Plug-In . SVG Version: 6.00 Build 0)  -->
<svg version="1.2" baseProfile="tiny" id="&#x30EC;&#x30A4;&#x30E4;&#x30FC;_1"
	 xmlns="http://www.w3.org/2000/svg" xmlns:xlink="http://www.w3.org/1999/xlink" x="0px" y="0px" width="82.399px"
	 height="88.724px" viewBox="0 0 82.399 88.724" xml:space="preserve">
<path id="path6263-9-9" fill="#F7E081" d="M0,88.724c0,0,1.794-18.985,4.118-40.398C6.441,26.912,8.342,9.034,8.342,9.034L40.676,0
	l31.781,7.579l9.941,81.125L0,88.724z"/>
<g id="g3527" transform="matrix(0.80950657,0.02826859,-0.0282686,0.80950657,0.64879623,20.261076)">
	<path id="path58" sodipodi:nodetypes="cscccccccsccccccccccccccccccsccsccc" fill="#040000" d="M41.485,25.481
		c-3.848,0.967-4.766,2.32-0.339,4.115c1.199,0.485,4.228,0.465,6.664,0.088c-0.006,1.499-0.039,2.868-0.028,4.49
		c-1.588,0.411-4.952,0.947-6.724,1.501c-3.22,0.901-5.38,2.081-1.968,3.751c2.056,0.913,5.098,1.639,8.744,1.111
		c0.074,4.924,0.116,9.585,0.294,14.396c-1.838,0.256-1.546,0.228-2.362,0.341c0.519-0.344,0.293-1.338,0.294-1.837
		c0-1.107-5.425-8.593-6.78-9.811c-1.459-1.274-4.772,0.332-5.719,2.059c-2.235,5.322,7.648,8.577,10.099,9.923
		c-0.924,0.148-4.388,0.602-5.71,0.955c-13.445,3.543-14.019,4.041-8.39,7.253c2.703,1.816,3.351,1.396,5.863,0.546
		c4.452-0.947,6.288-1.054,19.838-2.548c6.305-0.665,10.409-0.396,13.847,0.711c2.137,0.665,3.826,0.185,6.015-0.757
		c8.057-7.065-2.665-9.118-4.46-9.147c-4.638-0.055-7.872,0.447-8.528,0.507c2.256-1.18,6.04-3.249,7.897-5.213
		c1.175-1.276,1.702-2.973,1.371-5.48c-0.978-3.763-4.233-3.838-6.372-3.517c-1.741,0.662-1.58,5.058-7.308,14.744
		c-0.772,0.113-1.156,0.173-1.962,0.298c-0.127-2.672-0.361-12.068-0.644-14.655c3.891-0.992,8.634-0.999,9.976-2.644
		c1.491-1.527-0.357-4.409-3.847-4.73c-1.104-0.101-5.349,0.704-6.739,0.965c-0.144-2.739-0.152-3.382-0.867-4.296
		c3.18-0.332,6.397-0.935,8.52-3.085c1.401-1.418-0.961-4.337-5.703-3.617c-4.615,0.545-10.912,2.601-14.975,3.586L41.485,25.481z"
		/>
	<path id="path56" sodipodi:nodetypes="ccccscccc" fill="#040000" d="M45.901-5.157c-6.889,18.097-16.538,35.14-27.614,47.741
		c13.3-7.376,25.055-19.604,32.208-31.931c6.531,7.173,13.481,14.925,22.636,21.795c2.753,1.026,4.704,0.81,7.527,0.81
		c3.22,0,5.178,0.174,5.155-1.341c-0.148-3.224-0.991-4.735-9.123-8.639C61.621,12.908,56.621,9.39,53.18,5.073
		C54.896,1.892,49.723-4.449,45.901-5.157L45.901-5.157z"/>
</g>
</svg>
