<?xml version="1.0" encoding="iso-8859-1"?>
<!-- Generator: Adobe Illustrator 16.2.0, SVG Export Plug-In . SVG Version: 6.00 Build 0)  -->
<svg version="1.2" baseProfile="tiny" id="&#x30EC;&#x30A4;&#x30E4;&#x30FC;_1"
	 xmlns="http://www.w3.org/2000/svg" xmlns:xlink="http://www.w3.org/1999/xlink" x="0px" y="0px" width="76.518px"
	 height="85.14px" viewBox="0 0 76.518 85.14" xml:space="preserve">
<polygon id="path6263-9-9-5-8-7" fill="#F7E081" points="0,85.14 7.831,8.676 37.801,0 67.26,7.279 76.518,85.131 0,85.14 "/>
<path id="path18" sodipodi:nodetypes="cccccccccccccccccsccccccccccccccccccccccccccccccc" fill="#040000" d="M23.166,27.64
	c2.813,1.503,8.951,2.529,11.364,0.985l-0.063,5.615c0,0-11.724,2.374-17.631,3.335c-2.732,0.575-1.23,3.851,2.469,5.178
	c2.015,0.715,2.348,0.306,3.747-0.573c2.298-1.356,8.679-2.483,8.679-2.483C25.237,47.804,18.803,53.45,11.16,58.4
	c5.919-0.869,7.917-1.184,12.488-3.907c0.61,5.105,2.109,10.864,4.823,15.372c0.828,1.079,2.556,1.261,3.226,0.576l11.464-0.206
	c0.261,1.027,2.945,0.34,3.295-0.698c1.895-4.898,3.085-9.791,3.675-15.126c1.64,1.963,2.475,2.426,4.038,2.964
	c1.879,0.657,3.4,0.646,5.587,0.616c1.242-0.029,2.605-0.212,3.167-1.164c0.492-1.016,0.243-2.379-0.879-2.983
	c-1.063-0.573-1.875-0.907-3.525-1.398c-0.685-0.19-7.349-4.78-7.711-5.112l-10.624-8.404l-0.012-0.605
	c0,0,8.421-1.479,10.345-1.243c5.651,0.329,8.466-0.835,5.976-4.396c-1.389-1.633-2.413-2.054-5.424-1.569
	c-3.128,0.611-10.817,1.987-10.817,1.987c-0.075-4.611,0.399-4.782-1.035-5.674c1.52-0.623,6.05-1.427,7.783-2.04
	c2.284-0.866,2.202-5.607-0.563-6.307C41.379,21.174,33.788,24.222,23.166,27.64L23.166,27.64z M35.582,48.923
	c0,0-6.734,0.671-8.657,1.296c1.274,3.167,8,3.335,17.166,3.134l-0.31,3.711L30.07,57.513c-0.664-4.937-0.596-6.332-1.881-6.755
	c1.834-1.871,6.349-6.278,6.349-6.278C34.773,46.564,34.788,48.4,35.582,48.923L35.582,48.923z M39.624,48.579
	c0.599-0.697,0.3-4.573,0.361-5.188c0.792,0.945,3.003,3.885,4.066,4.965C42.363,48.498,41.361,48.464,39.624,48.579L39.624,48.579z
	 M43.03,65.881l-11.417,0.285l-0.872-4.223L43.4,61.584L43.03,65.881z"/>
</svg>
