<?xml version="1.0" encoding="iso-8859-1"?>
<!-- Generator: Adobe Illustrator 16.2.0, SVG Export Plug-In . SVG Version: 6.00 Build 0)  -->
<svg version="1.2" baseProfile="tiny" id="&#x30EC;&#x30A4;&#x30E4;&#x30FC;_1"
	 xmlns="http://www.w3.org/2000/svg" xmlns:xlink="http://www.w3.org/1999/xlink" x="0px" y="0px" width="82.399px"
	 height="88.724px" viewBox="0 0 82.399 88.724" xml:space="preserve">
<path id="path6263-9-9-5-81" fill="#F7E081" d="M0,88.724c0,0,1.795-18.985,4.118-40.397C6.441,26.913,8.343,9.034,8.343,9.034
	L40.677,0l31.781,7.58l9.941,81.124L0,88.724z"/>
<g id="g3720" transform="matrix(0.81225,0,0,0.81225,60.122992,31.066693)">
	<path id="path48" sodipodi:nodetypes="cccccccccccsc" fill="#C7171E" d="M-28.303-14.783c-0.441,1.44-1.078,3.315-1.473,4.429
		c-7.378,16.152-16.907,29.455-29.343,39.846c2.271,0,13.615-5.629,18.658-11.085c4.007-4.543,13.776-17.847,15.81-21.741
		C-15.875,5.919-12.83,13.935-4.034,21.67c2.288,1.999,5.273,2.256,8.771,2.699c2.11,0.266,3.435,0.31,4.483-0.806
		c1.718-3.772-4.618-8.21-6.445-8.862C-7.915,9.947-15.346,0.356-22.669-6.924c0.314-1.258,1.296-3.035,1.191-5.194
		c-0.058-1.761-4.279-3.703-5.385-3.703C-28.171-15.821-28.082-15.849-28.303-14.783L-28.303-14.783z"/>
	<path id="path52" sodipodi:nodetypes="ccccccccccccccccccsccccscccsccccccc" fill="#C7171E" d="M-31.397,11.813
		c-2.626,0.305-3.858,0.583-3.885,2.563c0.047,2.681,4.8,2.686,8.177,2.414l0.072,4.564c-1.862,0.355-3.601,0.501-5.492,0.987
		c-2.539,0.755-3.301,1.938-2.234,3.148c2.313,2.387,5.022,1.789,7.754,1.529l0.059,4.789c-1.688,0.267-2.685,0.275-4.058,0.601
		c-3.263,0.83-5.514,1.624-3.096,3.757c2.708,1.992,4.26,1.665,7.182,1.321l0.099,4.733c-6.093,1.063-10.94,1.498-17.254,3.799
		c-1.892,0.667-1.797,2.595,0.279,4.542c2.742,2.72,4.148,2.472,7.413,0.72c1.957-0.91,4.34-1.644,6.454-1.969
		c3.624-0.477,12.575-1.115,18.21-0.695c1.743,0.133,4.093,0.418,5.835,0.552c3.194,0.257,5.446,0.257,5.521-1.54
		c0.064-1.549-0.754-3.552-2.908-5.005c-2.549-1.782-4.357-1.925-10.369-1.677c-3.329,0.172-5.68,0.405-7.5,0.62l-0.093-5.027
		c2.621-0.311,4.801-0.433,6.849-1.35c1.58-0.708,1.577-1.909,0.37-3.916c-1.529-1.665-4.516-0.602-7.504-0.283l-0.153-4.883
		c2.096-0.296,7.437-0.943,7.73-2.619c0.302-1.731-0.172-3.201-1.656-3.502c-1.609-0.019-3.681,0.285-6.007,0.595l-0.054-4.619
		c2.994-0.429,3.615-0.491,5.959-0.769c1.159-0.093,1.612-1.549,1.651-2.478c0.023-0.851-1.16-2.614-2.635-2.69
		C-22.036,9.958-27.148,11.318-31.397,11.813L-31.397,11.813z"/>
</g>
</svg>
