<?xml version="1.0" encoding="iso-8859-1"?>
<!-- Generator: Adobe Illustrator 16.2.0, SVG Export Plug-In . SVG Version: 6.00 Build 0)  -->
<svg version="1.2" baseProfile="tiny" id="&#x30EC;&#x30A4;&#x30E4;&#x30FC;_1"
	 xmlns="http://www.w3.org/2000/svg" xmlns:xlink="http://www.w3.org/1999/xlink" x="0px" y="0px" width="76.518px"
	 height="85.14px" viewBox="0 0 76.518 85.14" xml:space="preserve">
<polygon id="path6263-9-9-5-8-6" fill="#F7E081" points="0,85.14 7.831,8.676 37.802,0 67.26,7.279 76.518,85.131 0,85.14 "/>
<g id="g3916" transform="matrix(0.855,0,0,0.855,118.98368,23.17763)">
	<path id="path28" sodipodi:nodetypes="ccccccccccccc" fill="#C7171E" d="M-96.707-5.487c-0.336,0.732,0.315-0.059-0.089,0.782
		c-6.991,16.606-12.406,25.543-23.056,37.88c-1.837,2.206-2.995,4.857-2.449,5.053c9.899-4.908,23.485-21.046,28.557-31.105
		c0.248,0.098,7.325,11.109,12.685,16.402c5.849,5.345,6.389,6.219,9.828,6.52c7.316,0.393,12.99-1.591,6.44-5.61
		C-73.903,18.853-82.251,13.1-91.728,3.633c0,0,0.887-1.891,1.877-3.533c1.782-2.959-1.19-3.877-3.467-5.106
		C-94.429-5.329-96.199-6.443-96.707-5.487L-96.707-5.487z"/>
	<path id="path36" sodipodi:nodetypes="ccccccscccccccscccccccccscccccsccc" fill="#C7171E" d="M-96.252,18.881
		c-0.698,0.515-0.752,1.052,0.684,2.208c1.238,1.062,1.511,1.353,1.16,2.345c-1.245,2.439-6.837,4.616-3.711,6.733
		c1.834,1.206,5.135,1.973,4.707,4.025c-2.145,0.202-4.579,0.825-6.17,1.453c-2.094,0.964-3.646,2.98-3.629,4.367
		c0.021,1.765,3.04,3.179,4.219,3.417l2.562,0.456c-0.511,0.579-0.973,1.186-1.701,1.838c-1.791,1.736-2.443,5.447,1.157,4.299
		c3.452-1.074,8.739-0.431,4.717,2.273c-1.478,1.271,0.573,2.135,1.811,2.684c1.342,0.472,4.407,0.244,5.81-0.34
		c1.806-0.891,2.617-2.37,2.617-3.987c0-2.111-3.062-4.147-5.098-4.539c-1.897-0.272-5.096-0.316-7.75,0.356
		c0.625-0.512,1.794-1.266,2.09-1.585c0.923-0.032,3.253-0.427,4.011-1.054c3.494-2.725,5.723-4.797,4.676-6.172
		c-1.138-1.327-3.341-2.75-5.48-3.484c0.319-0.635,0.355-0.702,1.063-1.532c1.837-2.206,1.483-4.155-0.794-5.245
		c-0.793-0.394-3.03-0.512-3.03-0.512l3.477-1.694c2.409-1.174,0.902-4.844-1.52-5.528C-93.143,18.726-95.258,18.233-96.252,18.881
		L-96.252,18.881z M-95.087,42.448c0,0-0.726-0.288-1.57-0.779c-2.377-0.937-2.744-1.359-0.789-2.626
		c0.702-0.456,1.735-0.626,3.628-0.827l-0.545,3.622L-95.087,42.448z"/>
</g>
</svg>
