<?xml version="1.0" encoding="iso-8859-1"?>
<!-- Generator: Adobe Illustrator 16.2.0, SVG Export Plug-In . SVG Version: 6.00 Build 0)  -->
<svg version="1.2" baseProfile="tiny" id="&#x30EC;&#x30A4;&#x30E4;&#x30FC;_1"
	 xmlns="http://www.w3.org/2000/svg" xmlns:xlink="http://www.w3.org/1999/xlink" x="0px" y="0px" width="76.518px"
	 height="85.14px" viewBox="0 0 76.518 85.14" xml:space="preserve">
<polygon id="path6263-9-9-5-8-7-1" fill="#F7E081" points="0,85.139 7.831,8.676 37.802,0 67.26,7.278 76.518,85.131 0,85.14 "/>
<path id="path16" sodipodi:nodetypes="ccccccccccccccccccccccssccccsccccccccccccccccsccccccc" fill="#C7171E" d="M32.492,19.929
	c-0.021,0.227,0.388,0.949,0.924,1.566c1.034,1.192,1.11,1.769,0.433,2.772c-2.311,3.669-3.181,4.453-1.196,5.881
	c1.309,0.95,1.634,1.793,0.65,2.69c-1.552,1.632-3.833,3.224-5.131,4.527c-1.942,1.957-4.192,4.533-5.013,5.716
	c-2.099,2.739-3.834,5.952-4.169,9.223c-0.168,1.923-0.086,2.424,0.625,2.979c0.675,0.477,2.153,0.485,2.786,0.172
	c3.537-1.823,7.647-3.299,13.362-5.033l-0.12,1.418l-3.988,2.065c-3.466,2.443-3.643,3.563-0.95,6.534
	c1.385,1.526,2.265,1.977,1.884,2.475c-0.627,0.896,0.788,2.07,2.505,2.221c1.334,0.207,2.284,0.662,3.262,1.487l-2.119,1.678
	c-3.6,3.065-2.414,4.461,2.069,2.384c1.969-1.138,5.61-0.881,7.152-2.536c0.795-0.88-0.91-3.695-3.188-4.654
	c-0.527-0.236-2.365-0.942-2.365-0.942c1.58-0.763,4.814-2.637,5.083-4.554c0.342-2.429-1.567-3.666-3.26-4.573
	c-0.846-0.454-1.212-0.669-1.21-1.657c-0.087-0.778,0.456-2.698,0.456-2.698s1.208-0.488,3.788-0.299
	c1.515,0.161,3.935,0.212,5.377,0.109c2.799-0.173,5.738-1.209,5.834-2.303c0.076-0.867-0.472-2.087-2.853-2.827
	c-2.05-0.673-6.423-0.849-9.203,0.03l-2.279,0.801c0,0,0.122-1.192,0.29-2.622c0.402-3.155,0.764-3.764-1.76-4.326
	c-0.865-0.229-2.614-1.071-2.614-1.071s1.189-1.086,1.828-1.639c1.649-1.489,2.135-2.401,0.104-4.251
	c-1.607-1.394-5.059-2.177-4.219-2.498c0.909-0.433,5.028-3.627,4.979-5.894c-0.072-1.108-3.356-2.256-5.658-2.457
	C33.939,19.759,33.032,19.821,32.492,19.929L32.492,19.929z M36.55,42.762c-0.247,2.827-0.401,3.45-0.401,3.45
	c-3.787,1.752-7.039,3.559-10.703,5.218c-2.824,1.424-3.526,0.074-1.498-3.506c2.511-4.711,7.313-6.659,11.696-9.919
	C37.157,39.413,36.681,41.245,36.55,42.762z M32.567,59.176c-1.258-0.992-1.78-1.147,0.089-2.462
	c0.939-0.662,2.078-1.098,2.667-1.357c-0.037,1.272-0.266,4.02-0.508,5.128C34.308,60.266,33.401,59.762,32.567,59.176
	L32.567,59.176z"/>
</svg>
