<?xml version="1.0" encoding="iso-8859-1"?>
<!-- Generator: Adobe Illustrator 16.2.0, SVG Export Plug-In . SVG Version: 6.00 Build 0)  -->
<svg version="1.2" baseProfile="tiny" id="&#x30EC;&#x30A4;&#x30E4;&#x30FC;_1"
	 xmlns="http://www.w3.org/2000/svg" xmlns:xlink="http://www.w3.org/1999/xlink" x="0px" y="0px" width="90.239px"
	 height="96.995px" viewBox="0 0 90.239 96.995" xml:space="preserve">
<polygon id="path7343" fill="#F7E081" points="9.646,9.587 44.67,0 79.686,8.21 90.239,96.915 0,96.995 "/>
<path id="path120" fill="#040000" d="M47.692,23.159c-0.879,0.379-2.859,0.884-4.398,1.199c-1.484,0.315-4.949,1.01-7.698,1.578
	c-2.694,0.504-5.994,1.136-7.258,1.388c-3.134,0.505-3.134,1.956,0.165,5.554c2.859,3.218,4.069,3.471,7.368,1.514
	c1.21-0.757,3.024-1.388,4.014-1.451l1.76-0.063l0.165,6.815c0.11,5.111,0,6.815-0.55,7.005c-0.385,0.126-2.035,0.694-3.685,1.262
	c-1.594,0.568-4.014,1.01-5.333,1.01c-1.265,0-2.529,0.253-2.694,0.631c-0.385,0.758,1.924,4.796,3.519,6.059
	c1.375,1.136,5.389,1.324,6.269,0.315c0.33-0.379,1.045-0.694,1.595-0.694c0.825,0,0.935,0.757,0.935,7.825
	c0,5.994-0.22,8.014-0.77,8.582c-0.44,0.441-3.574,1.009-6.983,1.325c-3.409,0.378-9.073,1.198-12.592,1.893
	c-3.904,0.82-7.148,1.136-8.413,0.884c-1.814-0.442-1.979-0.315-1.979,0.946c0,1.577,3.244,5.427,5.334,6.373
	c2.035,0.884,4.729,0.694,6.159-0.441c1.759-1.451,8.468-3.407,11.437-3.407c1.375,0,2.915-0.315,3.464-0.631
	c0.604-0.379,5.114-0.884,10.063-1.263c7.588-0.441,9.457-0.441,11.713,0.379c1.539,0.567,5.883,1.136,9.952,1.325
	c6.269,0.315,7.478,0.189,8.688-0.694c2.2-1.641,1.595-3.471-1.979-6.184c-2.749-2.146-3.574-2.398-9.127-3.093
	c-4.675-0.567-7.204-0.567-11.163,0c-2.804,0.442-5.333,0.505-5.608,0.189c-0.605-0.693-0.66-15.271-0.055-15.901
	c0.824-0.82,4.948-1.894,7.148-1.894c2.584,0,3.519-1.01,2.914-2.966c-0.551-1.515-5.114-3.345-8.414-3.345
	c-1.1,0-2.145-0.315-2.309-0.631c-0.221-0.379-0.551-2.587-0.715-4.858c-0.33-3.786-0.551-4.229-2.035-5.175
	c-3.464-2.146-3.024-2.335,8.358-4.354c3.409-0.567,6.434-1.388,6.818-1.83c1.319-1.514,0.11-3.786-2.64-4.858
	C56.325,22.402,50.277,22.213,47.692,23.159L47.692,23.159z"/>
</svg>
