<?xml version="1.0" encoding="iso-8859-1"?>
<!-- Generator: Adobe Illustrator 16.2.0, SVG Export Plug-In . SVG Version: 6.00 Build 0)  -->
<svg version="1.2" baseProfile="tiny" id="&#x30EC;&#x30A4;&#x30E4;&#x30FC;_1"
	 xmlns="http://www.w3.org/2000/svg" xmlns:xlink="http://www.w3.org/1999/xlink" x="0px" y="0px" width="86.436px"
	 height="93.109px" viewBox="0 0 86.436 93.109" xml:space="preserve">
<polygon id="path7343-5-5" fill="#F7E081" points="9.239,9.203 42.788,0 76.328,7.881 86.436,93.033 0,93.109 "/>
<g id="g23152" transform="matrix(1.1025,0,0,1.1025,-198.99363,-17.710866)">
	<path id="path116" sodipodi:nodetypes="cccccccccccccscccccc" fill="#C7171E" d="M220.799,31.237
		c-0.673,0.78,0.237,1.127,0.726,1.917c0.521,0.706,0.189,2.18-0.747,9.419c-0.337,3.968-0.178,6.054,1.746,8.108
		c2.583,2.268,0.965,0.066,12.627-0.673l-1.227,3.918c-4.762,0.122-13.131,1.818-10.76,3.473c1.812,1.325,0.423,1.346,6.082,1.15
		c2.422-0.051,3.428-0.411,4.436,0.491c1.477,1.358,5.421,0.44,7.488-7.457c0.756-2.968,1.668-4.45,0.221-5.557
		c-4.847-2.561-3.143-1.283-15.869,0.59l0.569-3.763c1.561-0.189,9.663-1.778,10.612-1.659c3.091,0.388,5.079-0.801,5.297-2.196
		c-0.063-1.635-2.279-2.564-3.036-2.989c-2.352-1.078-4.412,1.113-12.45,1.966c0.549-2.493,0.877-4.773-0.879-6.069
		C224.447,31.021,221.431,30.578,220.799,31.237L220.799,31.237z"/>
	<path id="path124" sodipodi:nodetypes="ccsccccccccccsccccccccccc" fill="#C7171E" d="M203.934,30.759
		c0.998,1.662,0.692,6.005,0.769,7.819c-2.132,0.246-5.199,0.461-6.997,0.316c-2.339-0.19-3.714-0.55-2.613,2.718
		c0.891,2.326,0.596,3.106,5.043,2.566c-0.278,1.084-0.412,2.005-0.222,5.086c0.151,1.323,0.109,1.403,0.109,1.403
		c-4.804,0.328-8.727-0.105-5.296,5.279c1.334,1.999,4.138,0.353,7.544-0.486c2.059-0.369,6.735-1.695,13.181-1.42
		c3.012,0.454,3.714-1.57,3.507-2.581c-0.19-2.121-2.212-2.826-5.721-2.4c1.524-3.493,1.276-2.345,1.501-3.974
		c0.052-1.268,0.581-2.444-1.056-3.819c-0.871-0.732-6.415-0.671-4.799,0.772c1.628,2.321,0.713,3.49,0.155,7.722l-4.768,0.663
		c-0.295-2.616-0.549-3.115,0.079-6.745l9.123-1.336c2.145-0.256,4.989-1.047,4.784-2.648c-0.507-3.013-3.972-2.632-5.459-2.309
		c-1.409,0.306-2.178,0.597-3.748,0.749c0.028-1.173,1.753-4.362,0.842-5.689C208.523,30.79,205.861,30.866,203.934,30.759
		L203.934,30.759z"/>
	<path id="path130" sodipodi:nodetypes="cccccccccccccccccccc" fill="#C7171E" d="M223.839,55.99
		c-0.363-0.171-1.911,0.683-2.311,3.66c-2.754,22.646-0.719,23.648,1.063,25.661c4.147,3.92,6.389,3.916,13.753,3.922
		c8.525-0.026,11.352-0.017,12.585-0.801c1.249-0.835,0.965-5.076,0.052-6.066c-1.812-2.231-3.2-6.457-5.555-13.582
		c-0.949,4.289-1.734,14.253-1.734,14.253s-9.596,1.301-11.102-0.513c3.04-1.573,10.542-4.507,9.582-8.929
		c-0.198-0.748-0.803-2.278-2.431-2.804l-2.865-0.841c2.303-1.444,6.204-3.758,5.09-5.955c-0.744-1.295-4.142-2.388-6.514-1.928
		c-1.221,0.252-3.012,1.538-1.563,2.381c2.231,0.847,3.87,1.785,1.985,3.43c-2.457,2.699-2.801,3.273-0.569,4.469
		c3.658,1.399-1.644,7.397-4.445,8.417c-3.275-4.509-0.443-13.135-2.047-20.483C225.983,57.942,225.74,56.982,223.839,55.99
		L223.839,55.99z"/>
	<path id="path134" sodipodi:nodetypes="ccccccccccccsccccccccccccc" fill="#C7171E" d="M198.265,58.172
		c0.806,2.642,8.378,2.52,13.402,2.222l0.031,4.204l-9.84,0.373c0.123-4.74-1.115-4.285-4.614-6.193
		c-0.801-0.363-0.294,1.769-0.063,3.743c0.153,7.314-2.25,13.926-2.417,21.922c0.071,3.259,7.152,5.582,7.135,1.284l-0.057-10.345
		c0,0,6.393,8.689,10.179,12.877c1.485,0.827,3.672,1.027,5-0.582c0.992-1.888,0.68-3.242,0.631-11.184l-0.725-10.074
		c-0.15-2.082,0.746-7.13-1.634-9.211c-2.381-1.717-2.813-1.346-4.649-1.142C206.348,56.61,201.937,57.165,198.265,58.172
		L198.265,58.172z M211.732,71.524l-9.896,0.364l-0.062-3.412l9.958-0.371L211.732,71.524z M211.659,75.104l-0.04,7.332
		c0,0-6.964-4.987-8.744-7.061L211.659,75.104z"/>
</g>
</svg>
