<?xml version="1.0" encoding="iso-8859-1"?>
<!-- Generator: Adobe Illustrator 16.2.0, SVG Export Plug-In . SVG Version: 6.00 Build 0)  -->
<svg version="1.2" baseProfile="tiny" id="&#x30EC;&#x30A4;&#x30E4;&#x30FC;_1"
	 xmlns="http://www.w3.org/2000/svg" xmlns:xlink="http://www.w3.org/1999/xlink" x="0px" y="0px" width="68.713px"
	 height="82.507px" viewBox="0 0 68.713 82.507" xml:space="preserve">
<polygon id="path6263-9-9-5-8-3-6-0" fill="#F7E081" points="0,82.507 7.045,8.416 33.958,0 60.412,7.061 68.713,82.501 "/>
<path id="path10" sodipodi:nodetypes="cccccccscccccccccc" fill="#C7171E" d="M24.369,24.357c-0.149,0.361,0.05,1.401,0.448,2.306
	c1.848,7.812,4.722,14.989,7.959,21.512c0,0.227-0.697,0.995-1.543,1.764c-2.141,1.854-4.629,5.472-5.376,7.733
	c-1.294,4.16,1.351,9.622,7.075,11.341c3.102,0.791,7.471,0.326,10.404,0.519c3.991,0.164,5.375-0.879,5.375-2.598
	c0-1.899-0.985-4.258-5.614-4.258c-3.553-0.083-11.382,3.354-12.834-1.058c-0.647-2.94-0.546-4.556,12.652-13.485
	c1.755-1.26,3.577-1.785,3.328-3.007c-0.428-2.546-1.279-4.193-4.716-5.695c-0.391,2.2-4.865,5.639-4.865,5.639
	c-2.433-4.599-3.474-10.046-3.491-14.305c0-4.251-2.033-5.187-6.115-6.362C24.967,23.77,24.618,23.77,24.369,24.357L24.369,24.357z"
	/>
</svg>
