<?xml version="1.0" encoding="iso-8859-1"?>
<!-- Generator: Adobe Illustrator 16.2.0, SVG Export Plug-In . SVG Version: 6.00 Build 0)  -->
<svg version="1.2" baseProfile="tiny" id="&#x30EC;&#x30A4;&#x30E4;&#x30FC;_1"
	 xmlns="http://www.w3.org/2000/svg" xmlns:xlink="http://www.w3.org/1999/xlink" x="0px" y="0px" width="86.437px"
	 height="93.109px" viewBox="0 0 86.437 93.109" xml:space="preserve">
<polygon id="path7343-5-4-6" fill="#F7E081" points="9.239,9.203 42.788,0 76.327,7.881 86.437,93.033 0,93.109 "/>
<g id="g37465" transform="matrix(1.1728819,0,0,1.1507799,-139.66279,-26.427811)">
	<path id="path66" sodipodi:nodetypes="ccccccccccscccccccccscccccccccccccscc" fill="#C7171E" d="M150.353,45.722l0.011,4.84
		c0,0-5.101,0.3-7.067,1.193c0.837,1.219,0.529,3.226,7.132,2.843l0.073,4.377c0,0-4.852,0.212-6.954,1.113
		c1.08,2.622,2.607,3.1,6.969,2.938l0.125,4.79c0,0-6.615,0.58-7.903,0.817c0,0-0.23-19.731-0.711-24.471
		c-0.545-2.485-4.491-4.815-4.991-3.433c-0.482,1.334,0.293,6.881,0.272,9.184c-0.095,9.535-3.35,20.217-1.037,22.421
		c2.731,2.284,3.16,0.16,6.28-0.051c8.057-0.182,26.001-1.084,26.001-1.084c1.284,3.012,1.474,5.474,0.839,8.442
		c-0.654,2.783-1.666,5.539-3.382,7.885c-5.715-1.929-14.283-1.232-22.233-1.603c9.116,2.268,16.111,2.631,19.95,5.91
		c1.509,1.538,4.964,0.314,7.705-2.526c0,0,3.973-3.391,6.028-8.992c2.479-6.757,2.868-10.411-2.45-14.459
		c-4.784-2.374-7.529,0.455-19.218,1.502l0.051-4.715c2.831-0.26,6.879-0.011,9.391-0.812c2.696-1.152-0.133-4.412-2.104-4.105
		c-1.959,0.331-4.837,0.738-7.404,0.872l-0.059-4.302c4.406-0.451,6.541-0.211,9.054-0.656c3.395-0.739-0.664-4.285-1.576-4.338
		c-2.632,0.04-4.509,0.675-7.693,0.84l-0.033-4.864c6.576-0.367,9.672,0.151,12.674-1.016c2.19-1.04-1.199-4.888-3.873-4.823
		c-5.26,0.12-8.171,1.216-23.191,2.688c-1.792,0.176-1.012,2.888,0.079,3.538c0.723,0.581,2.763,0.406,2.763,0.406"/>
	<path id="path74-9" sodipodi:nodetypes="ccscc" fill="#C7171E" d="M134.303,83.771c0,2.858,1.443,4.992,3.821,4.379
		c3.077-0.704,2.634-4.951,0.918-8.296c-1.302-2.537-3.786-4.179-5.382-5.06C133.837,77.358,134.345,80.124,134.303,83.771
		L134.303,83.771z"/>
	<path id="path74-9-0" sodipodi:nodetypes="ccscc" fill="#C7171E" d="M143.268,81.104c0,2.395,1.413,4.181,3.745,3.668
		c3.015-0.59,2.582-4.146,0.899-6.948c-1.276-2.125-3.711-3.5-5.274-4.237C142.812,75.734,143.309,78.051,143.268,81.104
		L143.268,81.104z"/>
	<path id="path74-9-08" sodipodi:nodetypes="ccscc" fill="#C7171E" d="M151.9,79.651c0,2.172,1.413,4.167,3.745,3.701
		c3.015-0.535,2.582-4.134,0.899-6.675c-1.276-1.927-3.71-3.174-5.274-3.843C151.444,74.781,151.941,76.882,151.9,79.651z"/>
	<path id="path74-9-7" sodipodi:nodetypes="ccscc" fill="#C7171E" d="M160.307,79.149c0,2.171,1.414,4.392,3.745,3.926
		c3.015-0.535,2.581-4.36,0.898-6.901c-1.276-1.927-3.71-3.174-5.274-3.843C159.851,74.28,160.349,76.38,160.307,79.149z"/>
</g>
</svg>
